<svg xmlns="http://www.w3.org/2000/svg" viewBox="0 0 64 64" role="img" aria-label="BGC Sports">
  <rect width="64" height="64" rx="14" fill="#06131F"/>
  <path d="M13 9h11M9 13v11M51 9H40M55 13v11M13 55h11M9 51V40M51 55H40M55 51V40" fill="none" stroke="#39F0AE" stroke-width="5" stroke-linecap="round"/>
  <path d="m32 19 10 6v13l-10 6-10-6V25l10-6Z" fill="none" stroke="#39F0AE" stroke-width="3.5" stroke-linejoin="round"/>
  <path d="m32 19 3.5 7-3.5 5.5-3.5-5.5 3.5-7Z" fill="#39F0AE"/>
  <path d="m22 25 6.5 1 3.5 5.5-3 6.5-7-.3V25Zm20 0-6.5 1-3.5 5.5 3 6.5 7-.3V25Z" fill="none" stroke="#39F0AE" stroke-width="2" stroke-linejoin="round"/>
</svg>
