<svg xmlns="http://www.w3.org/2000/svg" viewBox="0 0 512 512" role="img" aria-labelledby="title desc">
  <title id="title">BGC Sports</title>
  <desc id="desc">A signal green sports broadcast frame surrounding a stylized football on a deep navy field.</desc>
  <defs>
    <linearGradient id="bg" x1="64" y1="48" x2="448" y2="472" gradientUnits="userSpaceOnUse">
      <stop stop-color="#091827"/>
      <stop offset="1" stop-color="#041019"/>
    </linearGradient>
    <linearGradient id="signal" x1="92" y1="78" x2="426" y2="442" gradientUnits="userSpaceOnUse">
      <stop stop-color="#55F7C0"/>
      <stop offset="1" stop-color="#15D898"/>
    </linearGradient>
  </defs>
  <rect width="512" height="512" rx="112" fill="url(#bg)"/>
  <path d="M104 76h92M76 104v92M408 76h-92M436 104v92M104 436h92M76 408v-92M408 436h-92M436 408v-92" fill="none" stroke="url(#signal)" stroke-width="38" stroke-linecap="round"/>
  <circle cx="256" cy="256" r="136" fill="#081B2A" stroke="#1EE6A1" stroke-width="10" opacity=".98"/>
  <path d="m256 158 76 44v88l-76 44-76-44v-88l76-44Z" fill="none" stroke="url(#signal)" stroke-width="18" stroke-linejoin="round"/>
  <path d="m256 158 27 50-27 42-27-42 27-50Z" fill="url(#signal)"/>
  <path d="m180 202 49 6 27 42-23 44-53-4v-88Zm152 0-49 6-27 42 23 44 53-4v-88Z" fill="none" stroke="#55F7C0" stroke-width="12" stroke-linejoin="round" opacity=".9"/>
  <circle cx="256" cy="256" r="172" fill="none" stroke="#55F7C0" stroke-opacity=".13" stroke-width="4"/>
</svg>
